<mxfile host="app.diagrams.net" modified="2024-05-25T11:41:36.901Z" agent="Mozilla/5.0 (Windows NT 10.0; Win64; x64) AppleWebKit/537.36 (KHTML, like Gecko) Chrome/125.0.0.0 Safari/537.36 Edg/125.0.0.0" etag="mqsG1LcGbskB5vlQN41z" version="24.4.7" type="device">
  <diagram name="第 1 页" id="Y7OlPZvbCJxbNRkpPX2O">
    <mxGraphModel dx="1002" dy="603" grid="1" gridSize="10" guides="1" tooltips="1" connect="1" arrows="1" fold="1" page="1" pageScale="1" pageWidth="3300" pageHeight="4681" math="0" shadow="0">
      <root>
        <mxCell id="0" />
        <mxCell id="1" parent="0" />
        <mxCell id="LnkRqvn179Rv4zkbsdA9-34" value="" style="rounded=0;whiteSpace=wrap;html=1;" vertex="1" parent="1">
          <mxGeometry x="10" y="1350" width="470" height="240" as="geometry" />
        </mxCell>
        <mxCell id="V9sxvEGLhEP8uB-DpTMZ-1" value="&lt;p style=&quot;margin: 4px 0px 0px; text-align: center;&quot;&gt;SearchRecord&amp;nbsp;&lt;br&gt;&lt;/p&gt;&lt;hr size=&quot;1&quot; style=&quot;border-style:solid;&quot;&gt;&lt;p style=&quot;margin:0px;margin-left:4px;&quot;&gt;- attrs: QStringList&amp;nbsp;&lt;/p&gt;&lt;p style=&quot;margin:0px;margin-left:4px;&quot;&gt;- tables: QStringList&amp;nbsp;&lt;/p&gt;&lt;p style=&quot;margin:0px;margin-left:4px;&quot;&gt;&amp;nbsp;- attr_type: QStringList&amp;nbsp;&lt;/p&gt;&lt;p style=&quot;margin:0px;margin-left:4px;&quot;&gt;&amp;nbsp;- tableScheme: QStringList&lt;/p&gt;&lt;p style=&quot;margin:0px;margin-left:4px;&quot;&gt;&amp;nbsp; - attr_index_list: QList&amp;lt;int&amp;gt;&amp;nbsp;&amp;nbsp;&lt;/p&gt;&lt;p style=&quot;margin:0px;margin-left:4px;&quot;&gt;- compare_attr: QString&amp;nbsp;&lt;/p&gt;&lt;p style=&quot;margin:0px;margin-left:4px;&quot;&gt;&amp;nbsp;-compare_operator:QString&amp;nbsp;&lt;/p&gt;&lt;p style=&quot;margin:0px;margin-left:4px;&quot;&gt;&amp;nbsp;- compare_value: QString&amp;nbsp;&lt;/p&gt;&lt;p style=&quot;margin:0px;margin-left:4px;&quot;&gt;&amp;nbsp;- where_clause_std: std::string&amp;nbsp;&lt;/p&gt;&lt;p style=&quot;margin:0px;margin-left:4px;&quot;&gt;- DBPath: QString&amp;nbsp;&lt;/p&gt;&lt;hr size=&quot;1&quot; style=&quot;border-style:solid;&quot;&gt;&lt;p style=&quot;margin:0px;margin-left:4px;&quot;&gt;+ SearchRecord() |&lt;/p&gt;&lt;p style=&quot;margin:0px;margin-left:4px;&quot;&gt;+ selectFunction(textEdit: QTextEdit, dbName: QString, attrList: QString, tableList: QString, whereClause: QString): void&amp;nbsp;&lt;/p&gt;&lt;p style=&quot;margin:0px;margin-left:4px;&quot;&gt;&amp;nbsp;- containAll(list1: QStringList, list2: QStringList): bool&amp;nbsp;&lt;/p&gt;&lt;p style=&quot;margin:0px;margin-left:4px;&quot;&gt;&amp;nbsp;- get_index_list(list1: QStringList, list2: QStringList): QList&amp;lt;int&amp;gt;&amp;nbsp;&lt;/p&gt;&lt;p style=&quot;margin:0px;margin-left:4px;&quot;&gt;&amp;nbsp;- sort_by_sequence(list: QStringList, attrs_in_tables: QList&amp;lt;QStringList&amp;gt;, sequence: QList&amp;lt;QList&amp;lt;int&amp;gt;&amp;gt;): QStringList&amp;nbsp;&lt;/p&gt;" style="verticalAlign=top;align=left;overflow=fill;html=1;whiteSpace=wrap;" parent="1" vertex="1">
          <mxGeometry x="190" y="30" width="650" height="280" as="geometry" />
        </mxCell>
        <mxCell id="uWdpT3pVVUgn9eLI0OZa-2" value="&lt;p style=&quot;margin: 4px 0px 0px; text-align: center;&quot;&gt;altertable&amp;nbsp;&lt;br&gt;&lt;/p&gt;&lt;hr size=&quot;1&quot; style=&quot;border-style:solid;&quot;&gt;&lt;p style=&quot;margin:0px;margin-left:4px;&quot;&gt;- filename: string&amp;nbsp;&lt;/p&gt;&lt;p style=&quot;margin:0px;margin-left:4px;&quot;&gt;&amp;nbsp;- columns: vector&amp;lt;pair&amp;lt;string, string&amp;gt;&amp;gt;&amp;nbsp;&lt;br&gt;&lt;/p&gt;&lt;hr size=&quot;1&quot; style=&quot;border-style:solid;&quot;&gt;&lt;p style=&quot;margin:0px;margin-left:4px;&quot;&gt;+ alter(filename: string,&amp;nbsp;&lt;/p&gt;&lt;p style=&quot;margin:0px;margin-left:4px;&quot;&gt;&amp;nbsp;operation: string,&amp;nbsp;&lt;/p&gt;&lt;p style=&quot;margin:0px;margin-left:4px;&quot;&gt;oldColumnName: string,&amp;nbsp;&lt;/p&gt;&lt;p style=&quot;margin:0px;margin-left:4px;&quot;&gt;&amp;nbsp;newColumnName: string,&amp;nbsp;&lt;/p&gt;&lt;p style=&quot;margin:0px;margin-left:4px;&quot;&gt;newColumnType: string)&lt;br&gt;&lt;/p&gt;" style="verticalAlign=top;align=left;overflow=fill;html=1;whiteSpace=wrap;" parent="1" vertex="1">
          <mxGeometry x="190" y="340" width="180" height="170" as="geometry" />
        </mxCell>
        <mxCell id="uWdpT3pVVUgn9eLI0OZa-4" value="&lt;p style=&quot;margin: 4px 0px 0px; text-align: center;&quot;&gt;&lt;span style=&quot;text-align: left;&quot;&gt;modifyrecord&amp;nbsp; &amp;nbsp; &amp;nbsp;&amp;nbsp;&lt;/span&gt;&lt;br&gt;&lt;/p&gt;&lt;hr size=&quot;1&quot; style=&quot;border-style:solid;&quot;&gt;&lt;p style=&quot;margin:0px;margin-left:4px;&quot;&gt;- oldcurrentrow : int&amp;nbsp; &amp;nbsp; &amp;nbsp; &amp;nbsp; &amp;nbsp; &amp;nbsp;&amp;nbsp;&lt;/p&gt;&lt;p style=&quot;margin:0px;margin-left:4px;&quot;&gt;&amp;nbsp;- newcurrentrow : int&lt;br&gt;&lt;/p&gt;&lt;hr size=&quot;1&quot; style=&quot;border-style:solid;&quot;&gt;&lt;p style=&quot;margin:0px;margin-left:4px;&quot;&gt;+ valueExists(filePath : QString,&lt;br style=&quot;padding: 0px; margin: 0px;&quot;&gt;&amp;nbsp; &amp;nbsp; &amp;nbsp; &amp;nbsp; &amp;nbsp; &amp;nbsp; &amp;nbsp; &amp;nbsp;targetKey1 : QString,&lt;br style=&quot;padding: 0px; margin: 0px;&quot;&gt;&amp;nbsp; &amp;nbsp; &amp;nbsp; &amp;nbsp; &amp;nbsp; &amp;nbsp; &amp;nbsp; &amp;nbsp;currentrow : int&amp;amp;) : bool&amp;nbsp;&lt;br style=&quot;padding: 0px; margin: 0px;&quot;&gt;&amp;nbsp;+ modify(dbName : QString,&amp;nbsp; &amp;nbsp; &amp;nbsp; &amp;nbsp;&lt;br style=&quot;padding: 0px; margin: 0px;&quot;&gt;&amp;nbsp; &amp;nbsp; &amp;nbsp; &amp;nbsp; &amp;nbsp; tableName : QString,&amp;nbsp; &amp;nbsp;&amp;nbsp;&lt;br style=&quot;padding: 0px; margin: 0px;&quot;&gt;&amp;nbsp; &amp;nbsp; &amp;nbsp; &amp;nbsp; &amp;nbsp; setClause : QString,&amp;nbsp; &amp;nbsp;&amp;nbsp;&lt;br style=&quot;padding: 0px; margin: 0px;&quot;&gt;&amp;nbsp; &amp;nbsp; &amp;nbsp; &amp;nbsp; &amp;nbsp; whereClause : QString) : void&amp;nbsp;&lt;br&gt;&lt;/p&gt;" style="verticalAlign=top;align=left;overflow=fill;html=1;whiteSpace=wrap;" parent="1" vertex="1">
          <mxGeometry x="410" y="340" width="280" height="170" as="geometry" />
        </mxCell>
        <mxCell id="uWdpT3pVVUgn9eLI0OZa-6" value="+----------------------------------+&#xa;|              Smtp                |&#xa;+----------------------------------+&#xa;| - username: QByteArray           |&#xa;| - password: QByteArray           |&#xa;| - clientsocket: QTcpSocket*      |&#xa;| - recvaddr: QByteArray           |&#xa;| - subject: QString               |&#xa;| - content: QString               |&#xa;| - mailfrom: QByteArray           |&#xa;| - rcptto: QByteArray             |&#xa;| - prefrom: QByteArray            |&#xa;| - preto: QByteArray              |&#xa;| - presubject: QByteArray         |&#xa;+----------------------------------+&#xa;| + Smtp(username: QByteArray,     |&#xa;|        password: QByteArray)     |&#xa;| + send(recvaddr: QByteArray,     |&#xa;|        subject: QString,          |&#xa;|        content: QString): void   |&#xa;| + ~Smtp(): void                  |&#xa;+----------------------------------+" style="text;whiteSpace=wrap;" parent="1" vertex="1">
          <mxGeometry x="610" y="520" width="230" height="340" as="geometry" />
        </mxCell>
        <mxCell id="uWdpT3pVVUgn9eLI0OZa-7" value="&lt;p style=&quot;margin: 4px 0px 0px; text-align: center;&quot;&gt;&lt;span style=&quot;text-align: left;&quot;&gt;&amp;nbsp;Smtp&amp;nbsp;&amp;nbsp;&lt;/span&gt;&lt;br&gt;&lt;/p&gt;&lt;hr size=&quot;1&quot; style=&quot;border-style:solid;&quot;&gt;&lt;p style=&quot;margin:0px;margin-left:4px;&quot;&gt;- username: QByteArray&amp;nbsp; &amp;nbsp; &amp;nbsp; &amp;nbsp; &amp;nbsp; &amp;nbsp;&lt;br style=&quot;padding: 0px; margin: 0px;&quot;&gt;&amp;nbsp;- password: QByteArray&amp;nbsp; &amp;nbsp; &amp;nbsp; &amp;nbsp; &amp;nbsp; &amp;nbsp;&lt;br style=&quot;padding: 0px; margin: 0px;&quot;&gt;&amp;nbsp;- clientsocket: QTcpSocket*&amp;nbsp; &amp;nbsp; &amp;nbsp;&amp;nbsp;&lt;br style=&quot;padding: 0px; margin: 0px;&quot;&gt;&amp;nbsp;- recvaddr: QByteArray&amp;nbsp; &amp;nbsp; &amp;nbsp; &amp;nbsp; &amp;nbsp; &amp;nbsp;&lt;br style=&quot;padding: 0px; margin: 0px;&quot;&gt;&amp;nbsp;- subject: QString&amp;nbsp; &amp;nbsp; &amp;nbsp; &amp;nbsp; &amp;nbsp; &amp;nbsp; &amp;nbsp; &amp;nbsp;&lt;br style=&quot;padding: 0px; margin: 0px;&quot;&gt;&amp;nbsp;- content: QString&amp;nbsp; &amp;nbsp; &amp;nbsp; &amp;nbsp; &amp;nbsp; &amp;nbsp; &amp;nbsp; &amp;nbsp;&lt;br style=&quot;padding: 0px; margin: 0px;&quot;&gt;&amp;nbsp;- mailfrom: QByteArray&amp;nbsp; &amp;nbsp; &amp;nbsp; &amp;nbsp; &amp;nbsp; &amp;nbsp;&lt;br style=&quot;padding: 0px; margin: 0px;&quot;&gt;&amp;nbsp;- rcptto: QByteArray&amp;nbsp; &amp;nbsp; &amp;nbsp; &amp;nbsp; &amp;nbsp; &amp;nbsp; &amp;nbsp;&lt;br style=&quot;padding: 0px; margin: 0px;&quot;&gt;&amp;nbsp;- prefrom: QByteArray&amp;nbsp; &amp;nbsp; &amp;nbsp; &amp;nbsp; &amp;nbsp; &amp;nbsp;&amp;nbsp;&lt;br style=&quot;padding: 0px; margin: 0px;&quot;&gt;&amp;nbsp;- preto: QByteArray&amp;nbsp; &amp;nbsp; &amp;nbsp; &amp;nbsp; &amp;nbsp; &amp;nbsp; &amp;nbsp;&amp;nbsp;&lt;br style=&quot;padding: 0px; margin: 0px;&quot;&gt;- presubject: QByteArray&amp;nbsp; &amp;nbsp;&lt;br&gt;&lt;/p&gt;&lt;p style=&quot;margin:0px;margin-left:4px;&quot;&gt;&lt;br&gt;&lt;/p&gt;&lt;hr size=&quot;1&quot; style=&quot;border-style:solid;&quot;&gt;&lt;p style=&quot;margin:0px;margin-left:4px;&quot;&gt;+ Smtp(username: QByteArray,&amp;nbsp; &amp;nbsp; &amp;nbsp;&lt;br style=&quot;padding: 0px; margin: 0px;&quot;&gt;&amp;nbsp; &amp;nbsp; &amp;nbsp; &amp;nbsp; password: QByteArray)&amp;nbsp; &amp;nbsp; &amp;nbsp;&lt;br style=&quot;padding: 0px; margin: 0px;&quot;&gt;&amp;nbsp;+ send(recvaddr: QByteArray,&amp;nbsp; &amp;nbsp; &amp;nbsp;&lt;br style=&quot;padding: 0px; margin: 0px;&quot;&gt;&amp;nbsp; &amp;nbsp; &amp;nbsp; &amp;nbsp; subject: QString,&amp;nbsp; &amp;nbsp; &amp;nbsp; &amp;nbsp; &amp;nbsp;&amp;nbsp;&lt;br style=&quot;padding: 0px; margin: 0px;&quot;&gt;&amp;nbsp; &amp;nbsp; &amp;nbsp; &amp;nbsp; content: QString): void&amp;nbsp; &amp;nbsp;&lt;br style=&quot;padding: 0px; margin: 0px;&quot;&gt;&amp;nbsp;+ ~Smtp(): void&amp;nbsp; &amp;nbsp;&amp;nbsp;&lt;br&gt;&lt;/p&gt;" style="verticalAlign=top;align=left;overflow=fill;html=1;whiteSpace=wrap;" parent="1" vertex="1">
          <mxGeometry x="230" y="550" width="280" height="310" as="geometry" />
        </mxCell>
        <mxCell id="LnkRqvn179Rv4zkbsdA9-3" value="" style="shape=umlActor;verticalLabelPosition=bottom;verticalAlign=top;html=1;outlineConnect=0;" vertex="1" parent="1">
          <mxGeometry x="60" y="1430" width="30" height="60" as="geometry" />
        </mxCell>
        <mxCell id="LnkRqvn179Rv4zkbsdA9-4" value="CSI数据获取" style="rounded=0;whiteSpace=wrap;html=1;" vertex="1" parent="1">
          <mxGeometry x="30" y="1510" width="90" height="30" as="geometry" />
        </mxCell>
        <mxCell id="LnkRqvn179Rv4zkbsdA9-5" value="" style="endArrow=classic;html=1;rounded=0;exitX=1;exitY=0.5;exitDx=0;exitDy=0;edgeStyle=orthogonalEdgeStyle;" edge="1" parent="1" source="LnkRqvn179Rv4zkbsdA9-4">
          <mxGeometry width="50" height="50" relative="1" as="geometry">
            <mxPoint x="170" y="1550" as="sourcePoint" />
            <mxPoint x="180" y="1430" as="targetPoint" />
            <Array as="points">
              <mxPoint x="141" y="1530" />
              <mxPoint x="141" y="1430" />
              <mxPoint x="180" y="1430" />
            </Array>
          </mxGeometry>
        </mxCell>
        <mxCell id="LnkRqvn179Rv4zkbsdA9-7" value="数据裁剪" style="rounded=0;whiteSpace=wrap;html=1;" vertex="1" parent="1">
          <mxGeometry x="180" y="1410" width="90" height="30" as="geometry" />
        </mxCell>
        <mxCell id="LnkRqvn179Rv4zkbsdA9-12" value="数据差值补全" style="rounded=0;whiteSpace=wrap;html=1;" vertex="1" parent="1">
          <mxGeometry x="180" y="1460" width="90" height="30" as="geometry" />
        </mxCell>
        <mxCell id="LnkRqvn179Rv4zkbsdA9-13" value="归一化处理" style="rounded=0;whiteSpace=wrap;html=1;" vertex="1" parent="1">
          <mxGeometry x="180" y="1510" width="90" height="30" as="geometry" />
        </mxCell>
        <mxCell id="LnkRqvn179Rv4zkbsdA9-14" value="" style="endArrow=classic;html=1;rounded=0;exitX=1;exitY=0.5;exitDx=0;exitDy=0;edgeStyle=orthogonalEdgeStyle;" edge="1" parent="1">
          <mxGeometry width="50" height="50" relative="1" as="geometry">
            <mxPoint x="270" y="1520" as="sourcePoint" />
            <mxPoint x="330" y="1425" as="targetPoint" />
            <Array as="points">
              <mxPoint x="291" y="1525" />
              <mxPoint x="291" y="1425" />
              <mxPoint x="330" y="1425" />
            </Array>
          </mxGeometry>
        </mxCell>
        <mxCell id="LnkRqvn179Rv4zkbsdA9-15" value="数据收集" style="text;html=1;align=center;verticalAlign=middle;whiteSpace=wrap;rounded=0;" vertex="1" parent="1">
          <mxGeometry x="50" y="1350" width="60" height="30" as="geometry" />
        </mxCell>
        <mxCell id="LnkRqvn179Rv4zkbsdA9-16" value="数据预处理" style="text;html=1;align=center;verticalAlign=middle;whiteSpace=wrap;rounded=0;" vertex="1" parent="1">
          <mxGeometry x="190" y="1350" width="70" height="30" as="geometry" />
        </mxCell>
        <mxCell id="LnkRqvn179Rv4zkbsdA9-17" value="模型检测" style="text;html=1;align=center;verticalAlign=middle;whiteSpace=wrap;rounded=0;" vertex="1" parent="1">
          <mxGeometry x="335" y="1350" width="70" height="30" as="geometry" />
        </mxCell>
        <mxCell id="LnkRqvn179Rv4zkbsdA9-18" value="" style="endArrow=classic;html=1;rounded=0;exitX=0.5;exitY=1;exitDx=0;exitDy=0;entryX=0.5;entryY=0;entryDx=0;entryDy=0;" edge="1" parent="1" source="LnkRqvn179Rv4zkbsdA9-7" target="LnkRqvn179Rv4zkbsdA9-12">
          <mxGeometry width="50" height="50" relative="1" as="geometry">
            <mxPoint x="370" y="1510" as="sourcePoint" />
            <mxPoint x="420" y="1460" as="targetPoint" />
          </mxGeometry>
        </mxCell>
        <mxCell id="LnkRqvn179Rv4zkbsdA9-19" value="" style="endArrow=classic;html=1;rounded=0;exitX=0.5;exitY=1;exitDx=0;exitDy=0;entryX=0.5;entryY=0;entryDx=0;entryDy=0;" edge="1" parent="1" source="LnkRqvn179Rv4zkbsdA9-12" target="LnkRqvn179Rv4zkbsdA9-13">
          <mxGeometry width="50" height="50" relative="1" as="geometry">
            <mxPoint x="410" y="1550" as="sourcePoint" />
            <mxPoint x="460" y="1500" as="targetPoint" />
          </mxGeometry>
        </mxCell>
        <mxCell id="LnkRqvn179Rv4zkbsdA9-21" value="特征提取网络" style="rounded=0;whiteSpace=wrap;html=1;" vertex="1" parent="1">
          <mxGeometry x="330" y="1410" width="90" height="30" as="geometry" />
        </mxCell>
        <mxCell id="LnkRqvn179Rv4zkbsdA9-22" value="相似度计算网络" style="rounded=0;whiteSpace=wrap;html=1;" vertex="1" parent="1">
          <mxGeometry x="330" y="1460" width="90" height="30" as="geometry" />
        </mxCell>
        <mxCell id="LnkRqvn179Rv4zkbsdA9-23" value="" style="endArrow=classic;html=1;rounded=0;exitX=0.5;exitY=1;exitDx=0;exitDy=0;entryX=0.5;entryY=0;entryDx=0;entryDy=0;" edge="1" parent="1" source="LnkRqvn179Rv4zkbsdA9-21" target="LnkRqvn179Rv4zkbsdA9-22">
          <mxGeometry width="50" height="50" relative="1" as="geometry">
            <mxPoint x="400" y="1590" as="sourcePoint" />
            <mxPoint x="450" y="1540" as="targetPoint" />
          </mxGeometry>
        </mxCell>
        <mxCell id="LnkRqvn179Rv4zkbsdA9-25" value="" style="endArrow=none;html=1;rounded=0;entryX=0.5;entryY=1;entryDx=0;entryDy=0;" edge="1" parent="1" target="LnkRqvn179Rv4zkbsdA9-22">
          <mxGeometry width="50" height="50" relative="1" as="geometry">
            <mxPoint x="375" y="1520" as="sourcePoint" />
            <mxPoint x="375" y="1500" as="targetPoint" />
          </mxGeometry>
        </mxCell>
        <mxCell id="LnkRqvn179Rv4zkbsdA9-27" value="其他活动" style="rounded=0;whiteSpace=wrap;html=1;" vertex="1" parent="1">
          <mxGeometry x="290" y="1540" width="90" height="30" as="geometry" />
        </mxCell>
        <mxCell id="LnkRqvn179Rv4zkbsdA9-29" value="" style="endArrow=none;html=1;rounded=0;" edge="1" parent="1">
          <mxGeometry width="50" height="50" relative="1" as="geometry">
            <mxPoint x="350" y="1520" as="sourcePoint" />
            <mxPoint x="410" y="1520" as="targetPoint" />
          </mxGeometry>
        </mxCell>
        <mxCell id="LnkRqvn179Rv4zkbsdA9-31" value="" style="endArrow=classic;html=1;rounded=0;entryX=0.664;entryY=0.033;entryDx=0;entryDy=0;entryPerimeter=0;" edge="1" parent="1" target="LnkRqvn179Rv4zkbsdA9-27">
          <mxGeometry width="50" height="50" relative="1" as="geometry">
            <mxPoint x="350" y="1520" as="sourcePoint" />
            <mxPoint x="470" y="1540" as="targetPoint" />
          </mxGeometry>
        </mxCell>
        <mxCell id="LnkRqvn179Rv4zkbsdA9-32" value="" style="endArrow=classic;html=1;rounded=0;" edge="1" parent="1">
          <mxGeometry width="50" height="50" relative="1" as="geometry">
            <mxPoint x="410" y="1520" as="sourcePoint" />
            <mxPoint x="410" y="1540" as="targetPoint" />
          </mxGeometry>
        </mxCell>
        <mxCell id="LnkRqvn179Rv4zkbsdA9-33" value="人体姿态" style="rounded=0;whiteSpace=wrap;html=1;" vertex="1" parent="1">
          <mxGeometry x="390" y="1540" width="90" height="30" as="geometry" />
        </mxCell>
        <mxCell id="LnkRqvn179Rv4zkbsdA9-35" value="" style="endArrow=none;dashed=1;html=1;dashPattern=1 3;strokeWidth=2;rounded=0;fillColor=#e51400;strokeColor=#B20000;" edge="1" parent="1">
          <mxGeometry width="50" height="50" relative="1" as="geometry">
            <mxPoint x="160" y="1590" as="sourcePoint" />
            <mxPoint x="161" y="1350" as="targetPoint" />
          </mxGeometry>
        </mxCell>
        <mxCell id="LnkRqvn179Rv4zkbsdA9-37" value="" style="endArrow=none;dashed=1;html=1;dashPattern=1 3;strokeWidth=2;rounded=0;fillColor=#e51400;strokeColor=#B20000;" edge="1" parent="1">
          <mxGeometry width="50" height="50" relative="1" as="geometry">
            <mxPoint x="279.5" y="1590" as="sourcePoint" />
            <mxPoint x="281" y="1350" as="targetPoint" />
          </mxGeometry>
        </mxCell>
      </root>
    </mxGraphModel>
  </diagram>
</mxfile>
